[center][img]http://img23.imageshack.us/img23/4251/justinzlz.jpg[/img]



[img]http://leetleech.org/images/48874973695367351744.png[/img]


Format                           : AVI
Format/Info                      : Audio Video Interleave
File size                        : 1.15 GiB
Duration                         : 1h 40mn
Overall bit rate                 : 1 646 Kbps
Writing library                  : VirtualDub build 32839/release

Video
ID                               : 0
Format                           : MPEG-4 Visual
Format profile                   : Advanced Simple@L5
Format settings, BVOP            : Yes
Format settings, QPel            : No
Format settings, GMC             : No warppoints
Format settings, Matrix          : Custom
Codec ID                         : XVID
Codec ID/Hint                    : XviD
Duration                         : 1h 40mn
Bit rate                         : 1 381 Kbps
Width                            : 680 pixels
Height                           : 360 pixels
Display aspect ratio             : 1.889
Frame rate                       : 25.000 fps
Color space                      : YUV
Chroma subsampling               : 4:2:0
Bit depth                        : 8 bits
Scan type                        : Progressive
Bits/(Pixel*Frame)               : 0.226
Stream size                      : 989 MiB (84%)
Writing library                  : XviD 1.2.1 (UTC 2008-12-04)

Audio
ID                               : 1
Format                           : MPEG Audio
Format version                   : Version 1
Format profile                   : Layer 3
Codec ID                         : 55
Codec ID/Hint                    : MP3
Duration                         : 1h 40mn
Bit rate mode                    : Constant
Bit rate                         : 256 Kbps
Channel(s)                       : 2 channels
Sampling rate                    : 48.0 KHz
Stream size                      : 183 MiB (16%)
Alignment                        : Split accross interleaves
Interleave, duration             : 40 ms (1.00 video frame)
Interleave, preload duration     : 500 ms





[url]http://www.imdb.com/title/tt1702443/[/url]




[IMG]http://leetleech.org/images/89524873606771859129.png[/IMG]



Users: 1.2/10 (34,852 votes) 153 reviews | Critics: 72 reviews Metascore: 52/100 (based on 22 reviews from Metacritic.com)

Follows Justin Bieber with some footage of performances from his 2010 concert tour.
Director:
Jon Chu
Stars:
Justin Bieber, Boys II Men and Miley Cyrus 


[img]http://leetleech.org/images/95521316153253938506.png[/img]




[img]http://img715.imageshack.us/img715/6886/vlcsnap2011041818h45m36.png[/img]

[img]http://img5.imageshack.us/img5/1226/vlcsnap2011041818h45m05.png[/img]

[img]http://img857.imageshack.us/img857/4899/vlcsnap2011041818h45m30.png[/img]




VIDEO:New russian camrip .....Thanks

AUDIO:IMAGiNE .....and mort cam audio thanks


Did i want to do this release HELL NO its almost kills me to even upload it but guess someones gonna want it...Check the sample 1st as imo its not greatest cam but done what i can with it ...Maybe best watch this on your own and dont tell noone afterwards ........

Enjoy (or dont )



Greetz to Imagine ,Flawl3ss,DiLLoN,BDK,NOiR,TOXiCiNK,THC,Ez,Rx,Boobyblue





[img]http://img411.imageshack.us/img411/6898/sig1n.jpg[/img]





[/center]